<svg width="1728" height="665" viewBox="0 0 1728 665" fill="none" xmlns="http://www.w3.org/2000/svg">
<path fill-rule="evenodd" clip-rule="evenodd" d="M335.678 -290.578C172.835 -161.079 42.8654 -17.8523 -30.801 124.102C-204.899 459.587 -7.37065 677.824 415.141 663.45L415.067 662.568C236.693 668.533 98.5273 632.97 11.626 564.606C-106.925 471.343 -130.047 317.066 -29.8171 123.924C43.664 -17.6733 173.278 -160.572 335.74 -289.829L335.678 -290.578ZM1817.33 9.6521C1897.62 -73.5861 1962.54 -159.648 2006.95 -245.235C2107.18 -438.378 2084.06 -592.654 1965.51 -685.917C1912.59 -727.552 1840.65 -757.021 1752.19 -772.353L1752.1 -773.396C2039.57 -723.925 2153.31 -525.543 2007.94 -245.414C1963.33 -159.461 1898.09 -73.0419 1817.4 10.5138L1817.33 9.6521Z" fill="#FFB800"/>
<path fill-rule="evenodd" clip-rule="evenodd" d="M326.7 -283.397C168.059 -155.795 41.507 -15.2337 -30.8006 124.102C-231.61 511.059 61.9894 742.03 624.972 639.991C1187.95 537.952 1807.13 141.543 2007.94 -245.414C2154.94 -528.676 2037 -728.352 1742.4 -775L1742.48 -773.969C1835.39 -759.148 1910.66 -729.066 1965.51 -685.917C2084.06 -592.654 2107.18 -438.377 2006.95 -245.235C1906.72 -52.0928 1702.05 143.471 1452.04 303.535C1202.02 463.6 906.727 588.12 625.432 639.103C344.137 690.087 130.178 657.869 11.6265 564.606C-106.925 471.343 -130.047 317.066 -29.8166 123.924C42.3058 -15.0552 168.505 -155.288 326.763 -282.646L326.7 -283.397Z" fill="#FFB800"/>
</svg>
